<?xml version="1.0" standalone="no"?>
<!DOCTYPE svg PUBLIC "-//W3C//DTD SVG 20010904//EN"
 "http://www.w3.org/TR/2001/REC-SVG-20010904/DTD/svg10.dtd">
<svg version="1.0" xmlns="http://www.w3.org/2000/svg"
 width="1000.000000pt" height="1000.000000pt" viewBox="0 0 1000.000000 1000.000000"
 preserveAspectRatio="xMidYMid meet">
<metadata>
Created by potrace 1.14, written by Peter Selinger 2001-2017
</metadata>
<g transform="translate(0.000000,1000.000000) scale(0.100000,-0.100000)"
fill="#000000" stroke="none">
<path d="M1955 8064 c-33 -8 -100 -34 -150 -58 -152 -75 -266 -188 -340 -341
-58 -118 -75 -193 -75 -335 0 -142 17 -217 75 -335 74 -152 187 -266 340 -340
118 -58 193 -75 335 -75 142 0 217 17 335 75 153 74 266 188 340 340 58 118
75 193 75 335 0 142 -17 217 -75 335 -74 152 -187 266 -340 340 -49 25 -119
51 -155 59 -83 20 -283 20 -365 0z"/>
<path d="M4838 8060 c-91 -23 -219 -92 -282 -153 -84 -81 -121 -140 -191 -302
-7 -16 -28 -91 -45 -165 -18 -74 -36 -139 -40 -145 -4 -5 -22 -73 -40 -150
-18 -77 -36 -144 -40 -150 -4 -5 -24 -80 -44 -165 -21 -85 -42 -164 -47 -175
-5 -11 -25 -85 -44 -165 -19 -80 -40 -154 -45 -165 -5 -11 -26 -87 -45 -170
-19 -82 -39 -159 -45 -170 -5 -11 -26 -87 -46 -169 -20 -82 -40 -156 -45 -165
-4 -9 -25 -86 -45 -171 -20 -85 -40 -159 -44 -165 -4 -5 -22 -73 -40 -150 -18
-76 -36 -146 -41 -155 -5 -8 -14 -37 -21 -64 l-13 -49 -24 99 c-13 54 -27 101
-30 104 -4 3 -24 75 -45 160 -22 85 -43 162 -48 170 -4 8 -22 71 -38 140 -17
69 -35 134 -40 145 -5 11 -26 83 -45 160 -20 77 -40 149 -45 160 -6 11 -26 85
-45 165 -19 80 -39 152 -44 161 -5 8 -25 80 -45 160 -20 79 -41 153 -46 164
-5 11 -12 33 -17 49 -9 29 -9 29 -57 -48 -57 -91 -183 -227 -274 -295 -130
-98 -296 -171 -467 -206 -104 -21 -307 -21 -406 0 -41 9 -87 18 -102 22 -27 5
-28 4 -21 -23 3 -16 12 -42 20 -59 7 -16 26 -75 43 -130 17 -55 35 -107 39
-115 5 -8 26 -71 47 -140 20 -69 41 -129 45 -135 4 -5 22 -59 40 -120 17 -60
38 -123 46 -140 7 -16 30 -84 50 -150 20 -66 39 -124 44 -130 4 -5 24 -68 45
-140 21 -71 41 -132 44 -135 4 -3 22 -57 41 -120 19 -63 37 -117 41 -120 3 -3
23 -63 44 -135 22 -71 42 -132 45 -135 4 -3 24 -63 45 -135 22 -71 42 -132 46
-135 3 -3 23 -63 44 -135 21 -71 41 -132 45 -135 4 -3 24 -63 45 -135 21 -71
41 -132 44 -135 4 -3 22 -57 41 -120 19 -63 39 -124 45 -135 7 -11 27 -72 45
-135 19 -63 37 -117 40 -120 4 -3 18 -30 32 -60 23 -50 133 -200 147 -200 3 0
21 -14 39 -31 55 -52 201 -125 295 -148 116 -29 297 -29 406 -1 86 22 237 97
290 144 75 67 143 144 173 196 17 30 35 57 39 60 4 3 22 48 39 100 18 52 38
109 45 125 8 17 28 75 45 130 17 55 37 114 45 130 8 17 29 77 47 135 17 58 35
107 39 110 3 3 10 16 13 30 26 90 70 226 76 230 3 3 23 61 44 130 21 69 42
130 46 135 4 6 25 64 45 130 21 66 41 125 45 130 4 6 22 57 40 115 18 58 36
110 40 115 4 6 22 57 40 115 17 58 39 119 47 137 8 18 20 51 27 73 l12 42 19
-64 c10 -34 24 -74 32 -88 7 -14 29 -70 48 -125 19 -55 57 -163 85 -240 28
-77 67 -187 86 -245 20 -58 40 -109 44 -115 4 -5 24 -62 45 -125 20 -63 40
-119 45 -125 4 -5 14 -29 21 -53 l12 -43 74 80 c220 239 547 397 866 419 389
27 747 -104 1029 -376 l67 -64 17 58 c9 33 22 73 30 89 7 17 27 82 45 145 17
63 35 120 39 125 5 6 23 62 40 125 18 63 38 129 45 145 8 17 30 86 50 155 20
69 42 139 50 155 7 17 28 84 46 150 18 66 35 122 39 125 3 3 23 66 44 140 21
74 42 140 46 145 4 6 24 69 45 140 20 72 41 135 45 140 4 6 22 64 40 130 18
66 36 125 40 130 5 6 25 68 45 140 20 71 40 134 44 140 5 5 25 71 46 145 21
74 41 140 46 145 4 6 23 67 43 136 20 70 43 140 51 155 8 16 15 34 15 40 0 13
47 180 57 204 3 8 7 17 8 20 1 3 6 14 11 25 12 26 12 384 0 410 -5 11 -10 22
-11 25 -1 3 -4 12 -8 20 -3 8 -15 42 -27 76 -27 76 -115 194 -193 259 -148
122 -299 175 -500 175 -198 0 -342 -51 -465 -164 -45 -41 -122 -146 -122 -165
0 -6 -4 -11 -8 -11 -9 0 -53 -125 -72 -205 -7 -27 -16 -59 -21 -70 -5 -11 -22
-81 -39 -156 -16 -75 -33 -147 -38 -160 -6 -13 -10 -27 -11 -31 -1 -4 -4 -13
-6 -20 -2 -7 -18 -74 -34 -149 -17 -75 -35 -147 -40 -160 -6 -13 -26 -96 -46
-184 -20 -88 -40 -169 -45 -180 -5 -11 -25 -92 -45 -180 -20 -88 -40 -169 -45
-180 -5 -11 -19 -63 -30 -115 -33 -153 -51 -224 -60 -245 -6 -11 -19 -63 -30
-115 -33 -152 -51 -224 -60 -245 -5 -11 -24 -85 -41 -165 -17 -80 -36 -150
-41 -157 -5 -7 -7 -17 -4 -22 4 -5 2 -12 -3 -15 -4 -3 -12 -25 -16 -48 -7 -43
-7 -42 -34 67 -16 61 -33 121 -38 135 -6 14 -25 90 -43 170 -18 80 -36 147
-40 150 -3 3 -21 70 -39 150 -19 80 -37 150 -41 155 -4 6 -24 82 -44 170 -20
88 -41 168 -46 177 -5 9 -26 88 -46 175 -20 87 -40 163 -44 168 -4 6 -24 82
-44 170 -20 88 -41 167 -46 176 -5 9 -25 86 -45 170 -19 85 -39 161 -44 170
-5 8 -24 80 -42 160 -19 79 -37 146 -41 147 -5 2 -6 8 -3 12 3 5 1 17 -4 27
-5 10 -21 56 -35 102 -15 47 -39 104 -54 128 -36 59 -117 153 -169 198 -64 55
-194 123 -278 145 -101 27 -297 27 -407 0z"/>
<path d="M6295 3984 c-33 -8 -100 -34 -150 -58 -152 -75 -266 -188 -340 -341
-58 -118 -75 -193 -75 -335 0 -142 17 -217 75 -335 74 -152 187 -266 340 -340
118 -58 193 -75 335 -75 142 0 217 17 335 75 153 74 266 188 340 340 58 118
75 193 75 335 0 142 -17 217 -75 335 -74 152 -187 266 -340 340 -49 25 -119
51 -155 59 -83 20 -283 20 -365 0z"/>
</g>
</svg>
